<?xml version="1.0" encoding="UTF-8"?> <svg xmlns="http://www.w3.org/2000/svg" xmlns:xlink="http://www.w3.org/1999/xlink" width="1280" height="720" overflow=""><defs><clipPath id="clip0"><rect x="0" y="0" width="1280" height="720"></rect></clipPath><clipPath id="clip1"><rect x="18" y="40" width="820" height="667"></rect></clipPath><clipPath id="clip2"><rect x="79" y="61" width="746" height="592"></rect></clipPath><clipPath id="clip3"><rect x="18" y="40" width="820" height="667"></rect></clipPath><clipPath id="clip4"><rect x="18" y="40" width="820" height="667"></rect></clipPath><clipPath id="clip5"><rect x="18" y="40" width="820" height="667"></rect></clipPath><clipPath id="clip6"><rect x="18" y="40" width="820" height="667"></rect></clipPath><clipPath id="clip7"><rect x="18" y="40" width="820" height="667"></rect></clipPath><clipPath id="clip8"><rect x="18" y="40" width="820" height="667"></rect></clipPath><clipPath id="clip9"><rect x="18" y="40" width="820" height="667"></rect></clipPath><clipPath id="clip10"><rect x="18" y="40" width="820" height="667"></rect></clipPath><clipPath id="clip11"><rect x="18" y="40" width="820" height="667"></rect></clipPath><clipPath id="clip12"><rect x="18" y="40" width="820" height="667"></rect></clipPath><clipPath id="clip13"><rect x="18" y="40" width="820" height="667"></rect></clipPath><clipPath id="clip14"><rect x="18" y="40" width="820" height="667"></rect></clipPath><clipPath id="clip15"><rect x="18" y="40" width="820" height="667"></rect></clipPath><clipPath id="clip16"><rect x="18" y="40" width="820" height="667"></rect></clipPath></defs><g clip-path="url(#clip0)"><rect x="0" y="0" width="1280" height="720" fill="#FFFFFF"></rect><g clip-path="url(#clip1)"><path d="M79.5001 554.5 824.5 554.5M79.5001 455.5 824.5 455.5M79.5001 357.5 824.5 357.5M79.5001 258.5 824.5 258.5M79.5001 160.5 824.5 160.5M79.5001 61.5001 824.5 61.5001" stroke="#D9D9D9" stroke-linejoin="round" stroke-miterlimit="10" fill="none"></path></g><g clip-path="url(#clip2)"><path d="M108 160 201 160 201 653 108 653ZM257 209 350 209 350 653 257 653ZM405 259 499 259 499 653 405 653ZM554 308 647 308 647 653 554 653ZM703 357 796 357 796 653 703 653Z" fill="#12436D"></path></g><g clip-path="url(#clip3)"><path d="M79.5001 652.5 824.5 652.5" stroke="#D9D9D9" stroke-linejoin="round" stroke-miterlimit="10" fill="none" fill-rule="evenodd"></path></g><g clip-path="url(#clip4)"><path d="M79.5001 652.5 79.5001 660.5M228.5 652.5 228.5 660.5M377.5 652.5 377.5 660.5M526.5 652.5 526.5 660.5M675.5 652.5 675.5 660.5M824.5 652.5 824.5 660.5" stroke="#D9D9D9" stroke-linejoin="round" stroke-miterlimit="10" fill="none"></path></g><g clip-path="url(#clip5)"><text font-family="Arial,Arial_MSFontService,sans-serif" font-weight="400" font-size="27" transform="translate(42.0721 661)">0</text></g><g clip-path="url(#clip6)"><text font-family="Arial,Arial_MSFontService,sans-serif" font-weight="400" font-size="27" transform="translate(42.0721 563)">5</text></g><g clip-path="url(#clip7)"><text font-family="Arial,Arial_MSFontService,sans-serif" font-weight="400" font-size="27" transform="translate(27.2387 464)">10</text></g><g clip-path="url(#clip8)"><text font-family="Arial,Arial_MSFontService,sans-serif" font-weight="400" font-size="27" transform="translate(27.2387 366)">15</text></g><g clip-path="url(#clip9)"><text font-family="Arial,Arial_MSFontService,sans-serif" font-weight="400" font-size="27" transform="translate(27.2387 267)">20</text></g><g clip-path="url(#clip10)"><text font-family="Arial,Arial_MSFontService,sans-serif" font-weight="400" font-size="27" transform="translate(27.2387 168)">25</text></g><g clip-path="url(#clip11)"><text font-family="Arial,Arial_MSFontService,sans-serif" font-weight="400" font-size="27" transform="translate(27.2387 70)">30</text></g><g clip-path="url(#clip12)"><text font-family="Arial,Arial_MSFontService,sans-serif" font-weight="400" font-size="27" transform="translate(129.817 693)">Dog</text></g><g clip-path="url(#clip13)"><text font-family="Arial,Arial_MSFontService,sans-serif" font-weight="400" font-size="27" transform="translate(282.395 693)">Cat</text></g><g clip-path="url(#clip14)"><text font-family="Arial,Arial_MSFontService,sans-serif" font-weight="400" font-size="27" transform="translate(401.629 693)">Hamster</text></g><g clip-path="url(#clip15)"><text font-family="Arial,Arial_MSFontService,sans-serif" font-weight="400" font-size="27" transform="translate(555.649 693)">Dolphin</text></g><g clip-path="url(#clip16)"><text font-family="Arial,Arial_MSFontService,sans-serif" font-weight="400" font-size="27" transform="translate(716.39 693)">Other</text></g><text font-family="Arial,Arial_MSFontService,sans-serif" font-weight="400" font-size="27" transform="translate(8.56777 29)">Number of 6 year olds</text></g></svg> 